<svg width="546" height="100" viewBox="0 0 546 100" fill="none" xmlns="http://www.w3.org/2000/svg">
<path d="M115.228 45V12.2727H127.501C130.015 12.2727 132.124 12.7415 133.829 13.679C135.544 14.6165 136.838 15.9055 137.712 17.5462C138.596 19.1761 139.038 21.0298 139.038 23.1072C139.038 25.206 138.596 27.0703 137.712 28.7003C136.828 30.3303 135.523 31.614 133.797 32.5515C132.071 33.4783 129.946 33.9418 127.421 33.9418H119.287V29.0678H126.622C128.092 29.0678 129.296 28.8121 130.233 28.3008C131.171 27.7894 131.863 27.0863 132.311 26.1914C132.769 25.2965 132.998 24.2685 132.998 23.1072C132.998 21.946 132.769 20.9233 132.311 20.0391C131.863 19.1548 131.165 18.4677 130.217 17.9776C129.28 17.4769 128.071 17.2266 126.59 17.2266H121.157V45H115.228ZM144.188 45V12.2727H150.117V40.0302H164.531V45H144.188ZM197.645 28.6364C197.645 32.1626 196.985 35.1829 195.664 37.6971C194.354 40.2006 192.564 42.1183 190.295 43.4499C188.036 44.7816 185.474 45.4474 182.608 45.4474C179.742 45.4474 177.175 44.7816 174.906 43.4499C172.647 42.1076 170.857 40.1847 169.536 37.6811C168.226 35.1669 167.571 32.152 167.571 28.6364C167.571 25.1101 168.226 22.0952 169.536 19.5916C170.857 17.0774 172.647 15.1545 174.906 13.8228C177.175 12.4911 179.742 11.8253 182.608 11.8253C185.474 11.8253 188.036 12.4911 190.295 13.8228C192.564 15.1545 194.354 17.0774 195.664 19.5916C196.985 22.0952 197.645 25.1101 197.645 28.6364ZM191.685 28.6364C191.685 26.1541 191.296 24.0607 190.518 22.3562C189.751 20.641 188.686 19.3466 187.322 18.473C185.959 17.5888 184.387 17.1467 182.608 17.1467C180.829 17.1467 179.258 17.5888 177.894 18.473C176.53 19.3466 175.46 20.641 174.682 22.3562C173.915 24.0607 173.531 26.1541 173.531 28.6364C173.531 31.1186 173.915 33.2173 174.682 34.9325C175.46 36.6371 176.53 37.9315 177.894 38.8157C179.258 39.6893 180.829 40.1261 182.608 40.1261C184.387 40.1261 185.959 39.6893 187.322 38.8157C188.686 37.9315 189.751 36.6371 190.518 34.9325C191.296 33.2173 191.685 31.1186 191.685 28.6364ZM203.25 12.2727H210.505L220.221 35.9872H220.605L230.321 12.2727H237.576V45H231.887V22.516H231.583L222.538 44.9041H218.288L209.243 22.468H208.939V45H203.25V12.2727ZM244.032 45V12.2727H256.56C258.925 12.2727 260.891 12.6456 262.457 13.3913C264.033 14.1264 265.211 15.1332 265.988 16.4116C266.777 17.69 267.171 19.1388 267.171 20.7582C267.171 22.0898 266.915 23.2298 266.404 24.1779C265.892 25.1154 265.205 25.8771 264.342 26.4631C263.479 27.049 262.515 27.4698 261.45 27.7255V28.0451C262.611 28.109 263.725 28.4659 264.79 29.1158C265.866 29.755 266.745 30.6605 267.427 31.8324C268.108 33.0043 268.449 34.4212 268.449 36.0831C268.449 37.777 268.039 39.3004 267.219 40.6534C266.399 41.9957 265.163 43.0558 263.511 43.8335C261.86 44.6112 259.783 45 257.279 45H244.032ZM249.96 40.0462H256.336C258.488 40.0462 260.038 39.636 260.987 38.8157C261.945 37.9847 262.425 36.9194 262.425 35.6197C262.425 34.6502 262.185 33.7766 261.706 32.9989C261.226 32.2106 260.544 31.5927 259.66 31.1452C258.776 30.6871 257.721 30.4581 256.496 30.4581H249.96V40.0462ZM249.96 26.1914H255.825C256.848 26.1914 257.769 26.005 258.59 25.6321C259.41 25.2486 260.054 24.7106 260.523 24.0181C261.003 23.315 261.242 22.484 261.242 21.5252C261.242 20.2575 260.795 19.2134 259.9 18.3931C259.016 17.5728 257.7 17.1626 255.953 17.1626H249.96V26.1914ZM279.536 12.2727V45H273.607V12.2727H279.536ZM285.956 45V12.2727H307.241V17.2425H291.884V26.1275H306.138V31.0973H291.884V40.0302H307.369V45H285.956ZM313.29 45V12.2727H325.562C328.076 12.2727 330.186 12.7095 331.89 13.5831C333.606 14.4567 334.9 15.6818 335.774 17.2585C336.658 18.8246 337.1 20.6516 337.1 22.7397C337.1 24.8384 336.652 26.6602 335.758 28.2049C334.873 29.739 333.568 30.9268 331.842 31.7685C330.117 32.5994 327.997 33.0149 325.482 33.0149H316.741V28.093H324.683C326.153 28.093 327.357 27.8906 328.295 27.4858C329.232 27.0703 329.925 26.4684 330.372 25.68C330.83 24.881 331.059 23.9009 331.059 22.7397C331.059 21.5785 330.83 20.5877 330.372 19.7674C329.914 18.9364 329.216 18.3079 328.279 17.8817C327.341 17.445 326.132 17.2266 324.651 17.2266H319.218V45H313.29ZM330.196 30.1705L338.298 45H331.683L323.725 30.1705H330.196ZM381.732 23.315H375.756C375.585 22.3349 375.271 21.4666 374.813 20.7102C374.355 19.9432 373.785 19.2933 373.103 18.7607C372.421 18.228 371.644 17.8285 370.77 17.5621C369.907 17.2852 368.975 17.1467 367.973 17.1467C366.194 17.1467 364.618 17.5941 363.243 18.489C361.869 19.3732 360.793 20.6729 360.015 22.3881C359.238 24.0927 358.849 26.1754 358.849 28.6364C358.849 31.1399 359.238 33.2493 360.015 34.9645C360.804 36.669 361.88 37.9581 363.243 38.8317C364.618 39.6946 366.189 40.1261 367.957 40.1261C368.938 40.1261 369.854 39.9982 370.706 39.7425C371.569 39.4762 372.341 39.0874 373.023 38.576C373.716 38.0646 374.296 37.4361 374.765 36.6903C375.244 35.9446 375.575 35.0923 375.756 34.1335L381.732 34.1655C381.509 35.7209 381.024 37.1804 380.278 38.544C379.543 39.9077 378.579 41.1115 377.386 42.1555C376.193 43.1889 374.797 43.9986 373.199 44.5845C371.601 45.1598 369.827 45.4474 367.878 45.4474C365.001 45.4474 362.434 44.7816 360.175 43.4499C357.917 42.1183 356.138 40.1953 354.838 37.6811C353.538 35.1669 352.888 32.152 352.888 28.6364C352.888 25.1101 353.543 22.0952 354.854 19.5916C356.164 17.0774 357.949 15.1545 360.207 13.8228C362.466 12.4911 365.022 11.8253 367.878 11.8253C369.699 11.8253 371.393 12.081 372.959 12.5923C374.525 13.1037 375.921 13.8548 377.146 14.8455C378.371 15.8256 379.378 17.0295 380.166 18.457C380.965 19.8739 381.487 21.4933 381.732 23.315ZM390.969 45H384.641L396.162 12.2727H403.481L415.019 45H408.691L399.95 18.9844H399.694L390.969 45ZM391.177 32.168H408.435V36.93H391.177V32.168ZM446.224 12.2727V45H440.951L425.53 22.7077H425.258V45H419.33V12.2727H424.635L440.04 34.581H440.327V12.2727H446.224ZM479.579 12.2727V45H474.305L458.884 22.7077H458.613V45H452.684V12.2727H457.989L473.394 34.581H473.682V12.2727H479.579ZM486.039 45V12.2727H507.324V17.2425H491.967V26.1275H506.221V31.0973H491.967V40.0302H507.452V45H486.039ZM531.158 21.2695C531.009 19.8739 530.381 18.7873 529.273 18.0096C528.175 17.2319 526.748 16.843 524.99 16.843C523.754 16.843 522.694 17.0295 521.81 17.4023C520.926 17.7752 520.249 18.2812 519.781 18.9205C519.312 19.5597 519.072 20.2894 519.061 21.1097C519.061 21.7915 519.216 22.3828 519.525 22.8835C519.844 23.3842 520.276 23.8104 520.819 24.1619C521.363 24.5028 521.964 24.7905 522.625 25.0249C523.286 25.2592 523.951 25.4563 524.623 25.6161L527.691 26.3832C528.926 26.6708 530.114 27.0597 531.254 27.5497C532.405 28.0398 533.433 28.6577 534.338 29.4034C535.255 30.1491 535.979 31.0494 536.512 32.104C537.044 33.1587 537.311 34.3945 537.311 35.8114C537.311 37.729 536.821 39.4176 535.841 40.8771C534.86 42.326 533.444 43.4606 531.59 44.2809C529.747 45.0906 527.515 45.4954 524.894 45.4954C522.348 45.4954 520.137 45.1012 518.262 44.3129C516.398 43.5245 514.939 42.3739 513.884 40.8612C512.84 39.3484 512.275 37.5053 512.19 35.332H518.023C518.108 36.4719 518.46 37.4201 519.077 38.1765C519.695 38.9329 520.5 39.4975 521.49 39.8704C522.492 40.2433 523.61 40.4297 524.846 40.4297C526.135 40.4297 527.265 40.2379 528.234 39.8544C529.214 39.4602 529.981 38.9169 530.535 38.2244C531.089 37.5213 531.371 36.701 531.382 35.7635C531.371 34.9112 531.121 34.2081 530.631 33.6541C530.141 33.0895 529.454 32.6207 528.57 32.2479C527.696 31.8643 526.673 31.5234 525.501 31.2251L521.778 30.2663C519.083 29.5739 516.952 28.5245 515.386 27.1183C513.831 25.7013 513.053 23.821 513.053 21.4773C513.053 19.549 513.575 17.8604 514.619 16.4116C515.674 14.9627 517.107 13.8388 518.918 13.0398C520.729 12.2301 522.779 11.8253 525.07 11.8253C527.392 11.8253 529.427 12.2301 531.174 13.0398C532.932 13.8388 534.312 14.9521 535.313 16.3796C536.315 17.7965 536.831 19.4265 536.863 21.2695H531.158Z" fill="#0F4C5C"/>
<path d="M271.074 90V66.7273H285.665V69.75H274.586V76.8409H284.904V79.8523H274.586V86.9773H285.802V90H271.074ZM292.799 66.7273L298.367 75.8295H298.549L304.117 66.7273H308.185L300.935 78.3636L308.231 90H304.14L298.549 81.0227H298.367L292.776 90H288.685L296.106 78.3636L288.731 66.7273H292.799ZM311.668 90V66.7273H319.963C321.774 66.7273 323.274 67.0568 324.463 67.7159C325.653 68.375 326.543 69.2765 327.134 70.4205C327.725 71.5568 328.02 72.8371 328.02 74.2614C328.02 75.6932 327.721 76.9811 327.123 78.125C326.532 79.2614 325.638 80.1629 324.441 80.8295C323.251 81.4886 321.755 81.8182 319.952 81.8182H314.248V78.8409H319.634C320.778 78.8409 321.706 78.6439 322.418 78.25C323.13 77.8485 323.653 77.303 323.986 76.6136C324.32 75.9242 324.486 75.1402 324.486 74.2614C324.486 73.3826 324.32 72.6023 323.986 71.9205C323.653 71.2386 323.126 70.7045 322.407 70.3182C321.695 69.9318 320.755 69.7386 319.588 69.7386H315.179V90H311.668ZM332.137 90V66.7273H346.728V69.75H335.648V76.8409H345.966V79.8523H335.648V86.9773H346.864V90H332.137ZM351.418 90V66.7273H359.713C361.517 66.7273 363.013 67.0379 364.202 67.6591C365.399 68.2803 366.293 69.1402 366.884 70.2386C367.475 71.3295 367.77 72.5909 367.77 74.0227C367.77 75.447 367.471 76.7008 366.873 77.7841C366.282 78.8598 365.388 79.697 364.191 80.2955C363.001 80.8939 361.505 81.1932 359.702 81.1932H353.418V78.1705H359.384C360.52 78.1705 361.445 78.0076 362.157 77.6818C362.876 77.3561 363.403 76.8826 363.736 76.2614C364.07 75.6402 364.236 74.8939 364.236 74.0227C364.236 73.1439 364.066 72.3826 363.725 71.7386C363.392 71.0947 362.865 70.6023 362.145 70.2614C361.433 69.9129 360.498 69.7386 359.338 69.7386H354.929V90H351.418ZM362.907 79.5L368.657 90H364.657L359.02 79.5H362.907ZM370.895 69.75V66.7273H388.907V69.75H381.645V90H378.145V69.75H370.895Z" fill="#3A5A40"/>
<path d="M91.942 88.792C91.942 84.804 84.666 73.658 84.666 73.658C84.666 73.658 77.28 84.804 77.28 88.792C77.28 92.772 80.564 96 84.612 96C88.66 96 91.942 92.772 91.942 88.792ZM39.332 26.342H24.67V11.888H28.668V4H2V11.888H6V34.228C6 40.036 10.776 44.742 16.666 44.742H39.332V48.686H47.334V22.402H39.332V26.342ZM93.996 59.198V36.858C93.996 31.052 89.222 26.344 83.338 26.344H60.668V22.404H52.666V48.69H60.668V44.744H75.332V59.198H71.338V67.086H98V59.198H93.996Z" fill="#3A5A40"/>
</svg>
