<svg width="572" height="119" viewBox="0 0 572 119" fill="none" xmlns="http://www.w3.org/2000/svg">
<path d="M228.074 111V87.7273H242.665V90.75H231.586V97.8409H241.904V100.852H231.586V107.977H242.802V111H228.074ZM249.799 87.7273L255.367 96.8295H255.549L261.117 87.7273H265.185L257.935 99.3636L265.231 111H261.14L255.549 102.023H255.367L249.776 111H245.685L253.106 99.3636L245.731 87.7273H249.799ZM268.668 111V87.7273H276.963C278.774 87.7273 280.274 88.0568 281.463 88.7159C282.653 89.375 283.543 90.2765 284.134 91.4205C284.725 92.5568 285.02 93.8371 285.02 95.2614C285.02 96.6932 284.721 97.9811 284.123 99.125C283.532 100.261 282.638 101.163 281.441 101.83C280.251 102.489 278.755 102.818 276.952 102.818H271.248V99.8409H276.634C277.778 99.8409 278.706 99.6439 279.418 99.25C280.13 98.8485 280.653 98.303 280.986 97.6136C281.32 96.9242 281.486 96.1402 281.486 95.2614C281.486 94.3826 281.32 93.6023 280.986 92.9205C280.653 92.2386 280.126 91.7045 279.407 91.3182C278.695 90.9318 277.755 90.7386 276.588 90.7386H272.179V111H268.668ZM289.137 111V87.7273H303.728V90.75H292.648V97.8409H302.966V100.852H292.648V107.977H303.864V111H289.137ZM308.418 111V87.7273H316.713C318.517 87.7273 320.013 88.0379 321.202 88.6591C322.399 89.2803 323.293 90.1402 323.884 91.2386C324.475 92.3295 324.77 93.5909 324.77 95.0227C324.77 96.447 324.471 97.7008 323.873 98.7841C323.282 99.8598 322.388 100.697 321.191 101.295C320.001 101.894 318.505 102.193 316.702 102.193H310.418V99.1705H316.384C317.52 99.1705 318.445 99.0076 319.157 98.6818C319.876 98.3561 320.403 97.8826 320.736 97.2614C321.07 96.6402 321.236 95.8939 321.236 95.0227C321.236 94.1439 321.066 93.3826 320.725 92.7386C320.392 92.0947 319.865 91.6023 319.145 91.2614C318.433 90.9129 317.498 90.7386 316.338 90.7386H311.929V111H308.418ZM319.907 100.5L325.657 111H321.657L316.02 100.5H319.907ZM327.895 90.75V87.7273H345.907V90.75H338.645V111H335.145V90.75H327.895Z" fill="#0077B6"/>
<path d="M3.22798 59V26.2727H15.5007C18.0149 26.2727 20.1243 26.7415 21.8288 27.679C23.544 28.6165 24.8384 29.9055 25.712 31.5462C26.5962 33.1761 27.0384 35.0298 27.0384 37.1072C27.0384 39.206 26.5962 41.0703 25.712 42.7003C24.8278 44.3303 23.5227 45.614 21.7969 46.5515C20.071 47.4783 17.9457 47.9418 15.4208 47.9418H7.28693V43.0678H14.6218C16.092 43.0678 17.2958 42.8121 18.2333 42.3008C19.1708 41.7894 19.8633 41.0863 20.3107 40.1914C20.7688 39.2965 20.9979 38.2685 20.9979 37.1072C20.9979 35.946 20.7688 34.9233 20.3107 34.0391C19.8633 33.1548 19.1655 32.4677 18.2173 31.9776C17.2798 31.4769 16.0707 31.2266 14.5898 31.2266H9.15661V59H3.22798ZM32.1879 59V26.2727H38.1166V54.0302H52.5306V59H32.1879ZM85.6454 42.6364C85.6454 46.1626 84.9849 49.1829 83.6639 51.6971C82.3535 54.2006 80.5637 56.1183 78.2946 57.4499C76.036 58.7816 73.4739 59.4474 70.6081 59.4474C67.7424 59.4474 65.1749 58.7816 62.9057 57.4499C60.6472 56.1076 58.8574 54.1847 57.5364 51.6811C56.226 49.1669 55.5708 46.152 55.5708 42.6364C55.5708 39.1101 56.226 36.0952 57.5364 33.5916C58.8574 31.0774 60.6472 29.1545 62.9057 27.8228C65.1749 26.4911 67.7424 25.8253 70.6081 25.8253C73.4739 25.8253 76.036 26.4911 78.2946 27.8228C80.5637 29.1545 82.3535 31.0774 83.6639 33.5916C84.9849 36.0952 85.6454 39.1101 85.6454 42.6364ZM79.6848 42.6364C79.6848 40.1541 79.296 38.0607 78.5183 36.3562C77.7512 34.641 76.6859 33.3466 75.3223 32.473C73.9586 31.5888 72.3873 31.1467 70.6081 31.1467C68.829 31.1467 67.2576 31.5888 65.894 32.473C64.5304 33.3466 63.4597 34.641 62.682 36.3562C61.915 38.0607 61.5314 40.1541 61.5314 42.6364C61.5314 45.1186 61.915 47.2173 62.682 48.9325C63.4597 50.6371 64.5304 51.9315 65.894 52.8157C67.2576 53.6893 68.829 54.1261 70.6081 54.1261C72.3873 54.1261 73.9586 53.6893 75.3223 52.8157C76.6859 51.9315 77.7512 50.6371 78.5183 48.9325C79.296 47.2173 79.6848 45.1186 79.6848 42.6364ZM91.2504 26.2727H98.5054L108.221 49.9872H108.605L118.321 26.2727H125.576V59H119.887V36.516H119.583L110.538 58.9041H106.288L97.243 36.468H96.9394V59H91.2504V26.2727ZM132.032 59V26.2727H144.56C146.925 26.2727 148.891 26.6456 150.457 27.3913C152.033 28.1264 153.211 29.1332 153.988 30.4116C154.777 31.69 155.171 33.1388 155.171 34.7582C155.171 36.0898 154.915 37.2298 154.404 38.1779C153.892 39.1154 153.205 39.8771 152.342 40.4631C151.479 41.049 150.515 41.4698 149.45 41.7255V42.0451C150.611 42.109 151.725 42.4659 152.79 43.1158C153.866 43.755 154.745 44.6605 155.427 45.8324C156.108 47.0043 156.449 48.4212 156.449 50.0831C156.449 51.777 156.039 53.3004 155.219 54.6534C154.399 55.9957 153.163 57.0558 151.511 57.8335C149.86 58.6112 147.783 59 145.279 59H132.032ZM137.96 54.0462H144.336C146.488 54.0462 148.038 53.636 148.987 52.8157C149.945 51.9847 150.425 50.9194 150.425 49.6197C150.425 48.6502 150.185 47.7766 149.706 46.9989C149.226 46.2106 148.544 45.5927 147.66 45.1452C146.776 44.6871 145.721 44.4581 144.496 44.4581H137.96V54.0462ZM137.96 40.1914H143.825C144.848 40.1914 145.769 40.005 146.59 39.6321C147.41 39.2486 148.054 38.7106 148.523 38.0181C149.003 37.315 149.242 36.484 149.242 35.5252C149.242 34.2575 148.795 33.2134 147.9 32.3931C147.016 31.5728 145.7 31.1626 143.953 31.1626H137.96V40.1914ZM167.536 26.2727V59H161.607V26.2727H167.536ZM173.956 59V26.2727H195.241V31.2425H179.884V40.1275H194.138V45.0973H179.884V54.0302H195.369V59H173.956ZM201.29 59V26.2727H213.562C216.076 26.2727 218.186 26.7095 219.89 27.5831C221.606 28.4567 222.9 29.6818 223.774 31.2585C224.658 32.8246 225.1 34.6516 225.1 36.7397C225.1 38.8384 224.652 40.6602 223.758 42.2049C222.873 43.739 221.568 44.9268 219.842 45.7685C218.117 46.5994 215.997 47.0149 213.482 47.0149H204.741V42.093H212.683C214.153 42.093 215.357 41.8906 216.295 41.4858C217.232 41.0703 217.925 40.4684 218.372 39.68C218.83 38.881 219.059 37.9009 219.059 36.7397C219.059 35.5785 218.83 34.5877 218.372 33.7674C217.914 32.9364 217.216 32.3079 216.279 31.8817C215.341 31.445 214.132 31.2266 212.651 31.2266H207.218V59H201.29ZM218.196 44.1705L226.298 59H219.683L211.725 44.1705H218.196Z" fill="#002A41"/>
<path d="M337.79 31.2425V26.2727H363.901V31.2425H353.786V59H347.905V31.2425H337.79ZM396.728 42.6364C396.728 46.1626 396.068 49.1829 394.747 51.6971C393.437 54.2006 391.647 56.1183 389.378 57.4499C387.119 58.7816 384.557 59.4474 381.691 59.4474C378.825 59.4474 376.258 58.7816 373.989 57.4499C371.73 56.1076 369.94 54.1847 368.619 51.6811C367.309 49.1669 366.654 46.152 366.654 42.6364C366.654 39.1101 367.309 36.0952 368.619 33.5916C369.94 31.0774 371.73 29.1545 373.989 27.8228C376.258 26.4911 378.825 25.8253 381.691 25.8253C384.557 25.8253 387.119 26.4911 389.378 27.8228C391.647 29.1545 393.437 31.0774 394.747 33.5916C396.068 36.0952 396.728 39.1101 396.728 42.6364ZM390.768 42.6364C390.768 40.1541 390.379 38.0607 389.601 36.3562C388.834 34.641 387.769 33.3466 386.405 32.473C385.042 31.5888 383.47 31.1467 381.691 31.1467C379.912 31.1467 378.341 31.5888 376.977 32.473C375.613 33.3466 374.543 34.641 373.765 36.3562C372.998 38.0607 372.614 40.1541 372.614 42.6364C372.614 45.1186 372.998 47.2173 373.765 48.9325C374.543 50.6371 375.613 51.9315 376.977 52.8157C378.341 53.6893 379.912 54.1261 381.691 54.1261C383.47 54.1261 385.042 53.6893 386.405 52.8157C387.769 51.9315 388.834 50.6371 389.601 48.9325C390.379 47.2173 390.768 45.1186 390.768 42.6364ZM422.964 26.2727H428.892V47.6541C428.892 49.9979 428.338 52.0593 427.23 53.8384C426.133 55.6175 424.588 57.0078 422.596 58.0092C420.604 59 418.276 59.4954 415.613 59.4954C412.939 59.4954 410.606 59 408.614 58.0092C406.621 57.0078 405.077 55.6175 403.979 53.8384C402.882 52.0593 402.333 49.9979 402.333 47.6541V26.2727H408.262V47.1587C408.262 48.5224 408.56 49.7369 409.157 50.8022C409.764 51.8675 410.616 52.7038 411.714 53.3111C412.811 53.9077 414.111 54.206 415.613 54.206C417.115 54.206 418.415 53.9077 419.512 53.3111C420.62 52.7038 421.472 51.8675 422.069 50.8022C422.665 49.7369 422.964 48.5224 422.964 47.1587V26.2727ZM435.336 59V26.2727H441.265V54.0302H455.679V59H435.336ZM488.794 42.6364C488.794 46.1626 488.133 49.1829 486.812 51.6971C485.502 54.2006 483.712 56.1183 481.443 57.4499C479.184 58.7816 476.622 59.4474 473.757 59.4474C470.891 59.4474 468.323 58.7816 466.054 57.4499C463.796 56.1076 462.006 54.1847 460.685 51.6811C459.374 49.1669 458.719 46.152 458.719 42.6364C458.719 39.1101 459.374 36.0952 460.685 33.5916C462.006 31.0774 463.796 29.1545 466.054 27.8228C468.323 26.4911 470.891 25.8253 473.757 25.8253C476.622 25.8253 479.184 26.4911 481.443 27.8228C483.712 29.1545 485.502 31.0774 486.812 33.5916C488.133 36.0952 488.794 39.1101 488.794 42.6364ZM482.833 42.6364C482.833 40.1541 482.444 38.0607 481.667 36.3562C480.9 34.641 479.834 33.3466 478.471 32.473C477.107 31.5888 475.536 31.1467 473.757 31.1467C471.977 31.1467 470.406 31.5888 469.042 32.473C467.679 33.3466 466.608 34.641 465.83 36.3562C465.063 38.0607 464.68 40.1541 464.68 42.6364C464.68 45.1186 465.063 47.2173 465.83 48.9325C466.608 50.6371 467.679 51.9315 469.042 52.8157C470.406 53.6893 471.977 54.1261 473.757 54.1261C475.536 54.1261 477.107 53.6893 478.471 52.8157C479.834 51.9315 480.9 50.6371 481.667 48.9325C482.444 47.2173 482.833 45.1186 482.833 42.6364ZM521.293 26.2727V59H516.02L500.599 36.7077H500.328V59H494.399V26.2727H499.704L515.109 48.581H515.397V26.2727H521.293Z" fill="#002A41"/>
<path d="M308.48 40.0002C308.48 43.3905 307.715 46.7371 306.24 49.7899C304.766 52.8428 302.621 55.523 299.965 57.6302L293.485 42.5002L308.28 36.9502C308.413 37.9502 308.48 38.9669 308.48 40.0002Z" fill="#0077B6"/>
<path d="M326 40C326 50.6087 321.786 60.7828 314.284 68.2843C306.783 75.7857 296.609 80 286 80C275.391 80 265.217 75.7857 257.716 68.2843C250.214 60.7828 246 50.6087 246 40C246 29.3913 250.214 19.2172 257.716 11.7157C265.217 4.21427 275.391 0 286 0C296.609 0 306.783 4.21427 314.284 11.7157C321.786 19.2172 326 29.3913 326 40ZM321 40C320.998 34.6933 319.788 29.4567 317.464 24.6862C315.14 19.9156 311.761 15.736 307.584 12.4635C303.406 9.19101 298.539 6.91127 293.351 5.79671C288.163 4.68215 282.789 4.76195 277.636 6.03007C272.483 7.2982 267.686 9.72144 263.608 13.1165C259.529 16.5116 256.276 20.7897 254.095 25.6272C251.913 30.4646 250.86 35.7349 251.015 41.0393C251.17 46.3436 252.529 51.5433 254.99 56.245L264.93 47.96C263.072 43.0616 262.982 37.6686 264.675 32.7109C266.368 27.7532 269.738 23.5417 274.204 20.8026C278.67 18.0635 283.951 16.9685 289.138 17.7065C294.324 18.4444 299.091 20.969 302.615 24.845L283.485 32.5L288.485 45L295.15 60.55C292.35 61.805 289.25 62.5 285.985 62.5C283.266 62.5016 280.569 62.0104 278.025 61.05L269.735 71C275.07 73.7999 281.037 75.1752 287.06 74.9928C293.082 74.8104 298.955 73.0765 304.111 69.9588C309.266 66.8412 313.53 62.4454 316.489 57.1969C319.448 51.9484 321.002 46.025 321 40ZM279.525 40.695C279.671 40.4779 279.745 40.2207 279.736 39.9594C279.728 39.6981 279.638 39.446 279.479 39.2385C279.32 39.031 279.1 38.8785 278.85 38.8026C278.6 38.7266 278.333 38.7309 278.085 38.815L270.585 41.315L271.38 43.685L275.42 42.335L272.445 46.805C272.3 47.0217 272.227 47.2782 272.235 47.5387C272.243 47.7991 272.333 48.0505 272.491 48.2576C272.649 48.4648 272.868 48.6173 273.117 48.694C273.366 48.7706 273.633 48.7675 273.88 48.685L277.92 47.335L274.945 51.805C274.8 52.0217 274.727 52.2782 274.735 52.5387C274.743 52.7991 274.833 53.0505 274.991 53.2576C275.149 53.4648 275.368 53.6173 275.617 53.694C275.866 53.7706 276.133 53.7675 276.38 53.685L283.88 51.185L283.085 48.815L279.045 50.165L282.025 45.695C282.171 45.4779 282.245 45.2207 282.236 44.9594C282.228 44.6981 282.138 44.446 281.979 44.2385C281.82 44.031 281.6 43.8785 281.35 43.8026C281.1 43.7266 280.833 43.7309 280.585 43.815L276.545 45.165L279.525 40.695Z" fill="#0077B6"/>
</svg>
